Coordinates
version=1
nRows=12
nColumns=34
inDegrees=yes

Units are S.I. units (second, meters, Newtons, ...)
If the header above contains a line with 'inDegrees', this indicates whether rotational values are in degrees (yes) or radians (no).

endheader
time	pelvis_tilt	pelvis_list	pelvis_rotation	pelvis_tx	pelvis_ty	pelvis_tz	hip_flexion_r	hip_adduction_r	hip_rotation_r	knee_angle_r	ankle_angle_r	subtalar_angle_r	mtp_angle_r	hip_flexion_l	hip_adduction_l	hip_rotation_l	knee_angle_l	ankle_angle_l	subtalar_angle_l	mtp_angle_l	lumbar_extension	lumbar_bending	lumbar_rotation	arm_flex_r	arm_add_r	arm_rot_r	elbow_flex_r	pro_sup_r	arm_flex_l	arm_add_l	arm_rot_l	elbow_flex_l	pro_sup_l
     16.30000000	      3.26317533	     -3.85394295	     28.96182084	      0.23614770	      0.89216185	     -0.18524573	     18.21565745	      1.57615654	     -4.71087560	     16.63042484	      5.68636747	    -12.26052785	      0.00000000	     -3.17819372	      1.84441024	      0.78878486	      6.51158721	     -2.05332827	    -19.49814491	      0.00000000	     -2.72477868	      2.64081544	     -9.23107775	     -2.05636636	     -2.71054940	     -2.80539065	     21.62037955	     85.95065652	      0.50995254	    -11.19111666	     11.77766890	     28.60088963	     81.62123345
     16.31666670	      3.66453065	     -4.27566136	     29.29217044	      0.23533211	      0.89283106	     -0.18441657	     17.80208429	      2.33888722	     -5.02223073	     14.63021700	      4.53428139	    -12.13634508	      0.00000000	     -4.10894028	      1.12595052	      0.43213978	      5.80784430	     -4.30084420	    -19.73332852	      0.00000000	     -2.98651468	      3.32428338	     -9.45226313	     -2.01746961	     -2.82003246	     -2.81312201	     21.61714974	     85.92638663	      0.64007085	    -11.02231741	     12.11212653	     28.45147700	     81.79311547
     16.33333330	      3.63161895	     -4.60728350	     29.59536748	      0.23465263	      0.89242816	     -0.18301205	     17.88929639	      2.78441808	     -5.27306196	     13.08178469	      3.97594589	    -11.89831727	      0.00000000	     -4.29062457	      0.69808172	      0.03828108	      5.40847990	     -5.46152933	    -19.46996031	      0.00000000	     -2.89476675	      3.61290910	     -9.55427522	     -2.08000108	     -2.86786839	     -2.83071255	     21.59676341	     85.91712032	      0.67247937	    -10.85637505	     12.22826477	     28.46777401	     81.84187107
     16.35000000	      3.71959667	     -4.80919224	     29.82068370	      0.23430038	      0.89196065	     -0.18153112	     17.77007301	      3.20406354	     -5.29229535	     11.61449826	      3.39917822	    -11.63473917	      0.00000000	     -4.48602161	      0.35206813	     -0.10187056	      5.07285144	     -5.92705682	    -19.61189212	      0.00000000	     -3.06457282	      3.89662310	     -9.80088559	     -2.06706996	     -2.91774154	     -2.87295752	     21.59538396	     85.89865034	      0.63391617	    -10.69893777	     12.40351934	     28.36108153	     81.91097744
     16.36666670	      4.11940114	     -4.85167067	     30.28092937	      0.23384020	      0.89228094	     -0.18067780	     17.30176874	      3.55803585	     -5.40280910	     10.43617453	      2.71408980	    -11.58596267	      0.00000000	     -4.88950054	     -0.01946070	      0.14224673	      4.84007104	     -6.10986199	    -20.13466009	      0.00000000	     -3.68248671	      4.29858056	    -10.27259204	     -1.83784761	     -2.92310789	     -2.97940710	     21.57155962	     85.84962783	      0.70731026	    -10.55460317	     12.79924032	     28.04188808	     82.08163558
     16.38333330	      4.17050046	     -4.82466837	     30.58983774	      0.23369469	      0.89283275	     -0.17993561	     17.29807235	      3.68526593	     -5.02769589	      9.87196159	      2.32673729	    -11.28511457	      0.00000000	     -4.80184018	     -0.14741912	      0.27271746	      5.02205370	     -5.89778378	    -20.32378217	      0.00000000	     -3.92697329	      4.31833282	    -10.43244026	     -1.82380478	     -2.88376356	     -3.01300546	     21.53286060	     85.83400016	      0.72235613	    -10.42729976	     12.93034096	     27.95394915	     82.13264642
     16.40000000	      4.35926946	     -4.87067072	     31.02167939	      0.23391139	      0.89312548	     -0.17982124	     17.08896886	      3.87962300	     -5.04207984	      9.55135170	      1.46894794	    -11.10550500	      0.00000000	     -4.81971966	     -0.43619365	      0.55110380	      5.27927134	     -5.29389004	    -20.61682614	      0.00000000	     -4.18673641	      4.53545093	    -10.78061528	     -1.76559072	     -2.92673121	     -3.11074954	     21.45577857	     85.79691225	      0.65858802	    -10.23661528	     13.17622700	     27.71022079	     82.22752622
     16.41666670	      4.43263797	     -4.79639273	     31.32529176	      0.23401026	      0.89230001	     -0.17889787	     17.02710768	      3.92669286	     -4.90042465	      9.83378127	      1.16193842	    -11.00002736	      0.00000000	     -4.90326195	     -0.56183523	      0.60049272	      5.51302191	     -5.15291191	    -20.67549159	      0.00000000	     -4.24216831	      4.54116485	    -10.91305287	     -1.87812159	     -2.92758448	     -3.13027327	     21.39744853	     85.78912877	      0.56807211	    -10.00706380	     13.26406183	     27.66598558	     82.25080953
     16.43333330	      4.62044603	     -4.74338002	     31.92789569	      0.23261106	      0.89058441	     -0.17707208	     16.67981592	      3.97690722	     -5.10243904	      9.79608370	      0.15079269	    -11.59205709	      0.00000000	     -4.89382487	     -0.77642257	      1.02809100	      6.19722129	     -4.13135432	    -20.95906976	      0.00000000	     -4.50589563	      4.79193873	    -11.53473106	     -1.55488130	     -2.86526092	     -3.29630450	     21.32867245	     85.72203769	      0.63653880	     -9.93990479	     13.65969402	     27.23146252	     82.40894695
     16.45000000	      4.54967423	     -4.57455167	     32.21662517	      0.23134849	      0.88811348	     -0.17447237	     16.62502542	      3.83760403	     -5.15424049	     10.00892359	     -0.05942215	    -11.71628892	      0.00000000	     -4.95321987	     -0.72847938	      0.89981495	      6.48242222	     -4.01155475	    -21.07543131	      0.00000000	     -4.57764632	      4.68725063	    -11.59659567	     -1.49000359	     -2.90595330	     -3.32674043	     21.32268467	     85.71121314	      0.53662355	     -9.65968176	     13.77637464	     27.18899561	     82.43905997
     16.46666670	      4.38067696	     -4.30509395	     32.78576262	      0.23028759	      0.88649175	     -0.17194703	     16.65758012	      3.49724700	     -5.52046005	     10.29376637	     -0.44529999	    -12.51879074	      0.00000000	     -4.72170778	     -0.58501946	      0.99216459	      7.16303867	     -3.62440366	    -21.36955019	      0.00000000	     -4.90795791	      4.43096563	    -11.90101974	     -1.21678447	     -2.74349539	     -3.39605379	     21.35072572	     85.67796602	      0.69235299	     -9.77588583	     13.98306347	     27.00661083	     82.51796249
     16.48333330	      4.03505405	     -4.23692194	     33.36178876	      0.23101405	      0.88591607	     -0.17026005	     16.80708135	      3.36309742	     -5.13792737	     10.41782162	     -1.83544289	    -15.29435553	      0.00000000	     -4.28278540	     -0.55084061	      1.45805843	      7.77258526	     -3.66312173	    -21.81234166	      0.00000000	     -4.51059677	      4.23811488	    -12.51340857	     -0.94820821	     -2.51742221	     -3.78993032	     21.14373551	     85.50935186	      0.50849384	     -9.84423519	     15.21314456	     26.53187252	     82.92529345
